<svg id="SvgjsSvg1728" width="5000" height="1017" xmlns="http://www.w3.org/2000/svg" version="1.1" xmlns:xlink="http://www.w3.org/1999/xlink" xmlns:svgjs="http://svgjs.com/svgjs" viewBox="0 0 400 81.39204216003418"><defs id="SvgjsDefs1729"></defs><g id="SvgjsG1731"><svg width="400" height="3.9914770126342773" x="0" y="44.43891906738281" xmlns="http://www.w3.org/2000/svg" version="1.1" xmlns:xlink="http://www.w3.org/1999/xlink" xmlns:svgjs="http://svgjs.com/svgjs" preserveAspectRatio="none"><rect width="400" height="4" stroke-width="0" stroke="rgb(192, 192, 192)" stroke-opacity="1" fill="rgb(223, 223, 223)" fill-opacity="1" x="0" y="0" rx="0" ry="0"></rect><defs id="SvgjsDefs1730"></defs></svg></g><g id="SvgjsG1733" transform="rotate(0 200 15.923295021057129)"><svg xmlns="http://www.w3.org/2000/svg" xmlns:xlink="http://www.w3.org/1999/xlink" width="162.0454559326172" viewBox="3.549999952316284 13.5 162.0500030517578 31.860000610351562" overflow="visible" style="overflow: visible;" transform="" version="1.1" xmlns:svgjs="http://svgjs.com/svgjs" preserveAspectRatio="none" height="31.846590042114258" x="118.9772720336914" y="0" fill="#000000" stroke="none"><path stroke="none" fill="rgb(55, 55, 55)" d="M4.00 45L4.00 45Q3.55 45 3.55 44.55L3.55 44.55L3.55 13.95L3.55 13.95Q3.55 13.50 4.00 13.50L4.00 13.50L5.58 13.50L5.58 13.50Q5.94 13.50 6.08 13.86L6.08 13.86L15.84 38.56L15.84 38.56Q15.88 38.70 15.97 38.68L15.97 38.68L15.97 38.68Q16.06 38.66 16.06 38.52L16.06 38.52L16.06 13.95L16.06 13.95Q16.06 13.50 16.52 13.50L16.52 13.50L17.95 13.50L17.95 13.50Q18.40 13.50 18.40 13.95L18.40 13.95L18.40 44.55L18.40 44.55Q18.40 45 17.95 45L17.95 45L16.38 45L16.38 45Q16.02 45 15.88 44.64L15.88 44.64L6.12 19.89L6.12 19.89Q6.08 19.76 5.98 19.78L5.98 19.78L5.98 19.78Q5.89 19.80 5.89 19.94L5.89 19.94L5.94 44.55L5.94 44.55Q5.94 45 5.49 45L5.49 45L4.00 45ZM31.09 21.96L31.09 21.96Q34.16 21.96 35.89 24.01L35.89 24.01L35.89 24.01Q37.62 26.05 37.62 29.48L37.62 29.48L37.62 44.55L37.62 44.55Q37.62 45 37.17 45L37.17 45L35.69 45L35.69 45Q35.23 45 35.23 44.55L35.23 44.55L35.23 42.93L35.23 42.93Q35.23 42.80 35.17 42.77L35.17 42.77L35.17 42.77Q35.10 42.75 35.01 42.84L35.01 42.84L35.01 42.84Q33.34 45.36 29.79 45.36L29.79 45.36L29.79 45.36Q27.41 45.36 25.67 43.97L25.67 43.97L25.67 43.97Q23.94 42.57 23.94 39.06L23.94 39.06L23.94 39.06Q23.94 35.33 26.01 33.57L26.01 33.57L26.01 33.57Q28.08 31.82 31.55 31.82L31.55 31.82L35.05 31.82L35.05 31.82Q35.23 31.82 35.23 31.63L35.23 31.63L35.23 29.57L35.23 29.57Q35.23 27.05 34.13 25.56L34.13 25.56L34.13 25.56Q33.03 24.07 31.05 24.07L31.05 24.07L31.05 24.07Q29.48 24.07 28.33 25.07L28.33 25.07L28.33 25.07Q27.18 26.05 27 27.63L27 27.63L27 27.63Q27 28.08 26.55 28.08L26.55 28.08L24.93 27.99L24.93 27.99Q24.71 27.99 24.59 27.86L24.59 27.86L24.59 27.86Q24.48 27.72 24.53 27.54L24.53 27.54L24.53 27.54Q24.80 25.02 26.64 23.49L26.64 23.49L26.64 23.49Q28.48 21.96 31.09 21.96L31.09 21.96ZM30.29 43.24L30.29 43.24Q32.31 43.24 33.77 41.94L33.77 41.94L33.77 41.94Q35.23 40.63 35.23 38.25L35.23 38.25L35.23 33.98L35.23 33.98Q35.23 33.80 35.05 33.80L35.05 33.80L31.55 33.80L31.55 33.80Q29.21 33.80 27.79 35.08L27.79 35.08L27.79 35.08Q26.37 36.36 26.37 38.88L26.37 38.88L26.37 38.88Q26.37 41.09 27.45 42.16L27.45 42.16L27.45 42.16Q28.53 43.24 30.29 43.24L30.29 43.24ZM44.50 17.78L44.50 17.78Q43.74 17.78 43.20 17.21L43.20 17.21L43.20 17.21Q42.66 16.65 42.66 15.80L42.66 15.80L42.66 15.80Q42.66 14.94 43.20 14.40L43.20 14.40L43.20 14.40Q43.74 13.86 44.50 13.86L44.50 13.86L44.50 13.86Q45.31 13.86 45.81 14.40L45.81 14.40L45.81 14.40Q46.30 14.94 46.30 15.80L46.30 15.80L46.30 15.80Q46.30 16.70 45.81 17.23L45.81 17.23L45.81 17.23Q45.31 17.78 44.50 17.78L44.50 17.78ZM43.78 45L43.78 45Q43.34 45 43.34 44.55L43.34 44.55L43.34 22.77L43.34 22.77Q43.34 22.32 43.78 22.32L43.78 22.32L45.27 22.32L45.27 22.32Q45.72 22.32 45.72 22.77L45.72 22.77L45.72 44.55L45.72 44.55Q45.72 45 45.27 45L45.27 45L43.78 45ZM69.44 22.01L69.44 22.01Q72 22.01 73.48 23.98L73.48 23.98L73.48 23.98Q74.97 25.96 74.97 29.38L74.97 29.38L74.97 44.55L74.97 44.55Q74.97 45 74.52 45L74.52 45L73.03 45L73.03 45Q72.58 45 72.58 44.55L72.58 44.55L72.58 29.61L72.58 29.61Q72.58 27.09 71.53 25.61L71.53 25.61L71.53 25.61Q70.47 24.12 68.72 24.12L68.72 24.12L68.72 24.12Q66.82 24.12 65.72 25.56L65.72 25.56L65.72 25.56Q64.62 27 64.62 29.52L64.62 29.52L64.62 44.55L64.62 44.55Q64.62 45 64.17 45L64.17 45L62.68 45L62.68 45Q62.23 45 62.23 44.55L62.23 44.55L62.23 29.61L62.23 29.61Q62.23 27.09 61.16 25.61L61.16 25.61L61.16 25.61Q60.07 24.12 58.36 24.12L58.36 24.12L58.36 24.12Q56.47 24.12 55.35 25.56L55.35 25.56L55.35 25.56Q54.22 27 54.22 29.52L54.22 29.52L54.22 44.55L54.22 44.55Q54.22 45 53.77 45L53.77 45L52.33 45L52.33 45Q51.88 45 51.88 44.55L51.88 44.55L51.88 22.77L51.88 22.77Q51.88 22.32 52.33 22.32L52.33 22.32L53.77 22.32L53.77 22.32Q54.22 22.32 54.22 22.77L54.22 22.77L54.22 24.44L54.22 24.44Q54.22 24.57 54.31 24.59L54.31 24.59L54.31 24.59Q54.41 24.62 54.45 24.48L54.45 24.48L54.45 24.48Q55.26 23.27 56.50 22.64L56.50 22.64L56.50 22.64Q57.73 22.01 59.08 22.01L59.08 22.01L59.08 22.01Q60.79 22.01 62.05 22.91L62.05 22.91L62.05 22.91Q63.31 23.80 63.99 25.47L63.99 25.47L63.99 25.47Q64.08 25.70 64.22 25.38L64.22 25.38L64.22 25.38Q64.98 23.71 66.38 22.86L66.38 22.86L66.38 22.86Q67.77 22.01 69.44 22.01L69.44 22.01ZM90.67 45L90.67 45Q90.23 45 90.23 44.55L90.23 44.55L90.23 13.95L90.23 13.95Q90.23 13.50 90.67 13.50L90.67 13.50L92.20 13.50L92.20 13.50Q92.56 13.50 92.70 13.86L92.70 13.86L98.10 27L98.10 27Q98.15 27.09 98.23 27.09L98.23 27.09L98.23 27.09Q98.33 27.09 98.37 27L98.37 27L103.77 13.86L103.77 13.86Q103.91 13.50 104.27 13.50L104.27 13.50L105.80 13.50L105.80 13.50Q106.25 13.50 106.25 13.95L106.25 13.95L106.25 44.55L106.25 44.55Q106.25 45 105.80 45L105.80 45L104.31 45L104.31 45Q103.86 45 103.86 44.55L103.86 44.55L103.86 19.57L103.86 19.57Q103.86 19.44 103.77 19.44L103.77 19.44L103.77 19.44Q103.68 19.44 103.64 19.53L103.64 19.53L98.78 31.14L98.78 31.14Q98.64 31.50 98.33 31.50L98.33 31.50L98.33 31.50Q97.97 31.50 97.83 31.14L97.83 31.14L92.84 19.53L92.84 19.53Q92.79 19.44 92.70 19.44L92.70 19.44L92.70 19.44Q92.61 19.44 92.61 19.57L92.61 19.57L92.61 44.55L92.61 44.55Q92.61 45 92.16 45L92.16 45L90.67 45ZM125.64 34.06L125.64 34.06Q125.64 34.52 125.19 34.52L125.19 34.52L114.84 34.52L114.84 34.52Q114.66 34.52 114.66 34.70L114.66 34.70L114.66 38.52L114.66 38.52Q114.66 40.59 115.85 41.92L115.85 41.92L115.85 41.92Q117.05 43.24 118.94 43.24L118.94 43.24L118.94 43.24Q120.51 43.24 121.64 42.30L121.64 42.30L121.64 42.30Q122.76 41.35 123.12 39.83L123.12 39.83L123.12 39.83Q123.26 39.42 123.62 39.42L123.62 39.42L125.06 39.51L125.06 39.51Q125.24 39.51 125.37 39.60L125.37 39.60L125.37 39.60Q125.51 39.69 125.46 39.87L125.46 39.87L125.46 40.05L125.46 40.05Q125.01 42.52 123.30 43.94L123.30 43.94L123.30 43.94Q121.59 45.36 118.94 45.36L118.94 45.36L118.94 45.36Q115.97 45.36 114.12 43.49L114.12 43.49L114.12 43.49Q112.28 41.63 112.28 38.66L112.28 38.66L112.28 28.71L112.28 28.71Q112.28 25.74 114.12 23.85L114.12 23.85L114.12 23.85Q115.97 21.96 118.94 21.96L118.94 21.96L118.94 21.96Q121.95 21.96 123.80 23.85L123.80 23.85L123.80 23.85Q125.64 25.74 125.64 28.71L125.64 28.71L125.64 34.06ZM118.94 24.07L118.94 24.07Q117.05 24.07 115.85 25.40L115.85 25.40L115.85 25.40Q114.66 26.73 114.66 28.84L114.66 28.84L114.66 32.27L114.66 32.27Q114.66 32.45 114.84 32.45L114.84 32.45L123.08 32.45L123.08 32.45Q123.26 32.45 123.26 32.27L123.26 32.27L123.26 28.84L123.26 28.84Q123.26 26.73 122.06 25.40L122.06 25.40L122.06 25.40Q120.87 24.07 118.94 24.07L118.94 24.07ZM137.79 22.14L137.79 22.14Q138.92 22.14 139.73 22.59L139.73 22.59L139.73 22.59Q140.04 22.77 139.95 23.18L139.95 23.18L139.59 24.71L139.59 24.71Q139.46 25.11 139.01 24.93L139.01 24.93L139.01 24.93Q138.29 24.66 137.25 24.71L137.25 24.71L137.25 24.71Q135.45 24.75 134.33 26.50L134.33 26.50L134.33 26.50Q133.20 28.26 133.20 30.83L133.20 30.83L133.20 44.55L133.20 44.55Q133.20 45 132.75 45L132.75 45L131.27 45L131.27 45Q130.81 45 130.81 44.55L130.81 44.55L130.81 22.77L130.81 22.77Q130.81 22.32 131.27 22.32L131.27 22.32L132.75 22.32L132.75 22.32Q133.20 22.32 133.20 22.77L133.20 22.77L133.20 25.56L133.20 25.56Q133.20 25.70 133.29 25.70L133.29 25.70L133.29 25.70Q133.38 25.70 133.43 25.56L133.43 25.56L133.43 25.56Q134.06 23.94 135.16 23.04L135.16 23.04L135.16 23.04Q136.26 22.14 137.79 22.14L137.79 22.14ZM150.98 22.01L150.98 22.01Q153.72 22.01 155.21 23.85L155.21 23.85L155.21 23.85Q156.69 25.70 156.69 29.02L156.69 29.02L156.69 44.55L156.69 44.55Q156.69 45 156.24 45L156.24 45L154.76 45L154.76 45Q154.31 45 154.31 44.55L154.31 44.55L154.31 29.25L154.31 29.25Q154.31 26.82 153.25 25.47L153.25 25.47L153.25 25.47Q152.19 24.12 150.26 24.12L150.26 24.12L150.26 24.12Q148.28 24.12 147.13 25.56L147.13 25.56L147.13 25.56Q145.98 27 145.98 29.52L145.98 29.52L145.98 44.55L145.98 44.55Q145.98 45 145.53 45L145.53 45L144.05 45L144.05 45Q143.59 45 143.59 44.55L143.59 44.55L143.59 13.95L143.59 13.95Q143.59 13.50 144.05 13.50L144.05 13.50L145.53 13.50L145.53 13.50Q145.98 13.50 145.98 13.95L145.98 13.95L145.98 24.53L145.98 24.53Q145.98 24.66 146.07 24.66L146.07 24.66L146.07 24.66Q146.16 24.66 146.21 24.53L146.21 24.53L146.21 24.53Q147.83 22.01 150.98 22.01L150.98 22.01ZM163.80 17.78L163.80 17.78Q163.04 17.78 162.50 17.21L162.50 17.21L162.50 17.21Q161.96 16.65 161.96 15.80L161.96 15.80L161.96 15.80Q161.96 14.94 162.50 14.40L162.50 14.40L162.50 14.40Q163.04 13.86 163.80 13.86L163.80 13.86L163.80 13.86Q164.61 13.86 165.11 14.40L165.11 14.40L165.11 14.40Q165.60 14.94 165.60 15.80L165.60 15.80L165.60 15.80Q165.60 16.70 165.11 17.23L165.11 17.23L165.11 17.23Q164.61 17.78 163.80 17.78L163.80 17.78ZM163.08 45L163.08 45Q162.63 45 162.63 44.55L162.63 44.55L162.63 22.77L162.63 22.77Q162.63 22.32 163.08 22.32L163.08 22.32L164.57 22.32L164.57 22.32Q165.02 22.32 165.02 22.77L165.02 22.77L165.02 44.55L165.02 44.55Q165.02 45 164.57 45L164.57 45L163.08 45Z" transform="rotate(0 84.57500147819519 29.43000030517578)"></path><defs id="SvgjsDefs1732"></defs></svg></g><g id="SvgjsG1735" transform="rotate(0 199.99289512634277 71.61931467056274)"><svg xmlns="http://www.w3.org/2000/svg" xmlns:xlink="http://www.w3.org/1999/xlink" width="107.2585220336914" viewBox="1.2400000095367432 3.9000000953674316 107.27000427246094 14.100000381469727" overflow="visible" style="overflow: visible;" transform="" version="1.1" xmlns:svgjs="http://svgjs.com/svgjs" preserveAspectRatio="none" height="14.090909004211426" x="146.36363410949707" y="64.57386016845703" fill="#000000" stroke="none"><path stroke="none" fill="rgb(55, 55, 55)" d="M5.65 4.50L5.65 4.50Q7.06 4.50 8.07 5.21L8.07 5.21L8.07 5.21Q9.07 5.91 9.58 7.10L9.58 7.10L9.58 7.10Q10.09 8.29 10.09 9.75L10.09 9.75L10.09 9.75Q10.09 11.22 9.58 12.41L9.58 12.41L9.58 12.41Q9.07 13.61 8.07 14.30L8.07 14.30L8.07 14.30Q7.06 15 5.65 15L5.65 15L1.96 15L1.96 15Q1.67 15 1.45 14.79L1.45 14.79L1.45 14.79Q1.24 14.58 1.24 14.28L1.24 14.28L1.24 5.22L1.24 5.22Q1.24 4.92 1.45 4.71L1.45 4.71L1.45 4.71Q1.67 4.50 1.96 4.50L1.96 4.50L5.65 4.50ZM5.50 13.62L5.50 13.62Q7.04 13.62 7.80 12.53L7.80 12.53L7.80 12.53Q8.56 11.45 8.56 9.75L8.56 9.75L8.56 9.75Q8.56 8.07 7.79 6.97L7.79 6.97L7.79 6.97Q7.02 5.88 5.50 5.88L5.50 5.88L2.73 5.88L2.73 13.62L5.50 13.62ZM19.72 10.77L19.72 10.77Q19.70 11.04 19.49 11.23L19.49 11.23L19.49 11.23Q19.28 11.41 19 11.41L19 11.41L13.72 11.41L13.72 11.41Q13.82 12.51 14.55 13.17L14.55 13.17L14.55 13.17Q15.28 13.83 16.33 13.83L16.33 13.83L16.33 13.83Q17.05 13.83 17.50 13.62L17.50 13.62L17.50 13.62Q17.95 13.41 18.29 13.08L18.29 13.08L18.29 13.08Q18.52 12.95 18.73 12.95L18.73 12.95L18.73 12.95Q18.98 12.95 19.16 13.13L19.16 13.13L19.16 13.13Q19.33 13.30 19.33 13.54L19.33 13.54L19.33 13.54Q19.33 13.86 19.03 14.12L19.03 14.12L19.03 14.12Q18.59 14.55 17.88 14.85L17.88 14.85L17.88 14.85Q17.15 15.15 16.40 15.15L16.40 15.15L16.40 15.15Q15.19 15.15 14.27 14.64L14.27 14.64L14.27 14.64Q13.34 14.13 12.84 13.21L12.84 13.21L12.84 13.21Q12.34 12.30 12.34 11.14L12.34 11.14L12.34 11.14Q12.34 9.88 12.86 8.93L12.86 8.93L12.86 8.93Q13.37 7.98 14.22 7.47L14.22 7.47L14.22 7.47Q15.07 6.96 16.04 6.96L16.04 6.96L16.04 6.96Q17.00 6.96 17.84 7.46L17.84 7.46L17.84 7.46Q18.68 7.95 19.20 8.82L19.20 8.82L19.20 8.82Q19.70 9.69 19.72 10.77L19.72 10.77ZM16.04 8.28L16.04 8.28Q15.20 8.28 14.59 8.75L14.59 8.75L14.59 8.75Q13.97 9.23 13.78 10.21L13.78 10.21L18.20 10.21L18.20 10.09L18.20 10.09Q18.13 9.30 17.49 8.79L17.49 8.79L17.49 8.79Q16.85 8.28 16.04 8.28L16.04 8.28ZM21.92 13.77L21.92 13.77Q21.79 13.56 21.79 13.37L21.79 13.37L21.79 13.37Q21.79 13.06 22.10 12.86L22.10 12.86L22.10 12.86Q22.25 12.75 22.45 12.75L22.45 12.75L22.45 12.75Q22.71 12.75 22.94 12.97L22.94 12.97L22.94 12.97Q23.39 13.48 23.91 13.74L23.91 13.74L23.91 13.74Q24.43 14.00 25.14 14.00L25.14 14.00L25.14 14.00Q25.71 13.98 26.15 13.73L26.15 13.73L26.15 13.73Q26.59 13.48 26.59 12.93L26.59 12.93L26.59 12.93Q26.59 12.42 26.14 12.15L26.14 12.15L26.14 12.15Q25.70 11.88 24.84 11.66L24.84 11.66L24.84 11.66Q24.00 11.43 23.45 11.18L23.45 11.18L23.45 11.18Q22.89 10.94 22.51 10.46L22.51 10.46L22.51 10.46Q22.13 9.99 22.13 9.23L22.13 9.23L22.13 9.23Q22.13 8.55 22.51 8.04L22.51 8.04L22.51 8.04Q22.89 7.53 23.53 7.25L23.53 7.25L23.53 7.25Q24.17 6.96 24.92 6.96L24.92 6.96L24.92 6.96Q25.64 6.96 26.35 7.23L26.35 7.23L26.35 7.23Q27.06 7.50 27.52 8.05L27.52 8.05L27.52 8.05Q27.70 8.27 27.70 8.49L27.70 8.49L27.70 8.49Q27.70 8.73 27.45 8.96L27.45 8.96L27.45 8.96Q27.30 9.09 27.08 9.09L27.08 9.09L27.08 9.09Q26.81 9.09 26.64 8.91L26.64 8.91L26.64 8.91Q26.33 8.55 25.87 8.36L25.87 8.36L25.87 8.36Q25.41 8.16 24.86 8.16L24.86 8.16L24.86 8.16Q24.29 8.16 23.89 8.39L23.89 8.39L23.89 8.39Q23.50 8.63 23.50 9.18L23.50 9.18L23.50 9.18Q23.51 9.71 23.95 9.96L23.95 9.96L23.95 9.96Q24.39 10.21 25.31 10.46L25.31 10.46L25.31 10.46Q26.11 10.66 26.63 10.91L26.63 10.91L26.63 10.91Q27.16 11.14 27.52 11.62L27.52 11.62L27.52 11.62Q27.88 12.09 27.88 12.86L27.88 12.86L27.88 12.86Q27.88 13.56 27.47 14.08L27.47 14.08L27.47 14.08Q27.06 14.60 26.41 14.87L26.41 14.87L26.41 14.87Q25.76 15.15 25.02 15.15L25.02 15.15L25.02 15.15Q24.08 15.15 23.28 14.82L23.28 14.82L23.28 14.82Q22.48 14.49 21.92 13.77L21.92 13.77ZM31.88 14.28L31.88 14.28Q31.88 14.58 31.67 14.79L31.67 14.79L31.67 14.79Q31.47 15 31.16 15L31.16 15L31.16 15Q30.86 15 30.65 14.79L30.65 14.79L30.65 14.79Q30.45 14.58 30.45 14.28L30.45 14.28L30.45 7.79L30.45 7.79Q30.45 7.49 30.65 7.28L30.65 7.28L30.65 7.28Q30.86 7.07 31.16 7.07L31.16 7.07L31.16 7.07Q31.47 7.07 31.67 7.28L31.67 7.28L31.67 7.28Q31.88 7.49 31.88 7.79L31.88 7.79L31.88 14.28ZM31.16 6.08L31.16 6.08Q30.72 6.08 30.53 5.92L30.53 5.92L30.53 5.92Q30.35 5.76 30.35 5.42L30.35 5.42L30.35 5.18L30.35 5.18Q30.35 4.81 30.55 4.67L30.55 4.67L30.55 4.67Q30.75 4.52 31.17 4.52L31.17 4.52L31.17 4.52Q31.59 4.52 31.78 4.67L31.78 4.67L31.78 4.67Q31.96 4.83 31.96 5.18L31.96 5.18L31.96 5.42L31.96 5.42Q31.96 5.78 31.77 5.93L31.77 5.93L31.77 5.93Q31.57 6.08 31.16 6.08L31.16 6.08ZM41.50 7.04L41.50 7.04Q41.81 7.04 42.02 7.24L42.02 7.24L42.02 7.24Q42.22 7.44 42.22 7.77L42.22 7.77L42.22 14.37L42.22 14.37Q42.22 15.59 41.70 16.40L41.70 16.40L41.70 16.40Q41.19 17.22 40.30 17.61L40.30 17.61L40.30 17.61Q39.41 18 38.30 18L38.30 18L38.30 18Q37.70 18 36.90 17.79L36.90 17.79L36.90 17.79Q36.10 17.58 35.88 17.36L35.88 17.36L35.88 17.36Q35.41 17.11 35.41 16.75L35.41 16.75L35.41 16.75Q35.41 16.66 35.47 16.52L35.47 16.52L35.47 16.52Q35.64 16.14 36.03 16.14L36.03 16.14L36.03 16.14Q36.22 16.14 36.45 16.23L36.45 16.23L36.45 16.23Q37.65 16.70 38.32 16.70L38.32 16.70L38.32 16.70Q39.52 16.70 40.16 16.12L40.16 16.12L40.16 16.12Q40.80 15.54 40.80 14.54L40.80 14.54L40.80 13.72L40.80 13.72Q40.48 14.31 39.74 14.73L39.74 14.73L39.74 14.73Q39.00 15.15 38.17 15.15L38.17 15.15L38.17 15.15Q37.14 15.15 36.28 14.63L36.28 14.63L36.28 14.63Q35.43 14.10 34.94 13.16L34.94 13.16L34.94 13.16Q34.45 12.22 34.45 11.05L34.45 11.05L34.45 11.05Q34.45 9.88 34.94 8.95L34.94 8.95L34.94 8.95Q35.43 8.01 36.27 7.49L36.27 7.49L36.27 7.49Q37.12 6.96 38.14 6.96L38.14 6.96L38.14 6.96Q38.97 6.96 39.68 7.33L39.68 7.33L39.68 7.33Q40.39 7.71 40.80 8.25L40.80 8.25L40.80 7.77L40.80 7.77Q40.80 7.46 40.99 7.25L40.99 7.25L40.99 7.25Q41.19 7.04 41.50 7.04L41.50 7.04ZM38.34 13.83L38.34 13.83Q39.07 13.83 39.64 13.48L39.64 13.48L39.64 13.48Q40.21 13.13 40.53 12.49L40.53 12.49L40.53 12.49Q40.86 11.85 40.86 11.05L40.86 11.05L40.86 11.05Q40.86 10.26 40.53 9.63L40.53 9.63L40.53 9.63Q40.21 9 39.64 8.64L39.64 8.64L39.64 8.64Q39.07 8.28 38.34 8.28L38.34 8.28L38.34 8.28Q37.62 8.28 37.05 8.64L37.05 8.64L37.05 8.64Q36.48 9 36.15 9.64L36.15 9.64L36.15 9.64Q35.83 10.28 35.83 11.05L35.83 11.05L35.83 11.05Q35.83 11.84 36.15 12.47L36.15 12.47L36.15 12.47Q36.48 13.11 37.05 13.47L37.05 13.47L37.05 13.47Q37.62 13.83 38.34 13.83L38.34 13.83ZM49.34 6.96L49.34 6.96Q52.04 6.96 52.04 10.20L52.04 10.20L52.04 14.28L52.04 14.28Q52.04 14.58 51.84 14.79L51.84 14.79L51.84 14.79Q51.64 15 51.32 15L51.32 15L51.32 15Q51.02 15 50.82 14.79L50.82 14.79L50.82 14.79Q50.62 14.58 50.62 14.28L50.62 14.28L50.62 10.21L50.62 10.21Q50.62 9.33 50.21 8.80L50.21 8.80L50.21 8.80Q49.81 8.28 48.89 8.28L48.89 8.28L48.89 8.28Q48.29 8.28 47.80 8.54L47.80 8.54L47.80 8.54Q47.32 8.80 47.04 9.25L47.04 9.25L47.04 9.25Q46.76 9.69 46.76 10.21L46.76 10.21L46.76 14.28L46.76 14.28Q46.76 14.58 46.56 14.79L46.56 14.79L46.56 14.79Q46.36 15 46.04 15L46.04 15L46.04 15Q45.73 15 45.53 14.80L45.53 14.80L45.53 14.80Q45.34 14.60 45.34 14.28L45.34 14.28L45.34 7.86L45.34 7.86Q45.34 7.56 45.54 7.35L45.54 7.35L45.54 7.35Q45.74 7.14 46.04 7.14L46.04 7.14L46.04 7.14Q46.36 7.14 46.56 7.35L46.56 7.35L46.56 7.35Q46.76 7.56 46.76 7.86L46.76 7.86L46.76 8.39L46.76 8.39Q47.15 7.79 47.85 7.37L47.85 7.37L47.85 7.37Q48.55 6.96 49.34 6.96L49.34 6.96ZM63.69 15.15L63.69 15.15Q62.59 15.15 61.75 14.84L61.75 14.84L61.75 14.84Q60.91 14.54 60.15 13.85L60.15 13.85L60.15 13.85Q59.83 13.57 59.83 13.23L59.83 13.23L59.83 13.23Q59.83 12.96 60.04 12.74L60.04 12.74L60.04 12.74Q60.25 12.53 60.54 12.53L60.54 12.53L60.54 12.53Q60.79 12.53 60.97 12.69L60.97 12.69L60.97 12.69Q61.57 13.25 62.21 13.51L62.21 13.51L62.21 13.51Q62.85 13.77 63.66 13.77L63.66 13.77L63.66 13.77Q64.60 13.77 65.25 13.34L65.25 13.34L65.25 13.34Q65.91 12.90 65.91 12.24L65.91 12.24L65.91 12.24Q65.89 11.46 65.25 11.03L65.25 11.03L65.25 11.03Q64.62 10.61 63.31 10.32L63.31 10.32L63.31 10.32Q61.77 10.00 60.93 9.29L60.93 9.29L60.93 9.29Q60.10 8.57 60.10 7.29L60.10 7.29L60.10 7.29Q60.10 6.41 60.57 5.74L60.57 5.74L60.57 5.74Q61.03 5.07 61.86 4.71L61.86 4.71L61.86 4.71Q62.68 4.35 63.72 4.35L63.72 4.35L63.72 4.35Q64.65 4.35 65.47 4.65L65.47 4.65L65.47 4.65Q66.30 4.95 66.81 5.45L66.81 5.45L66.81 5.45Q67.15 5.75 67.15 6.09L67.15 6.09L67.15 6.09Q67.15 6.36 66.95 6.57L66.95 6.57L66.95 6.57Q66.75 6.78 66.46 6.78L66.46 6.78L66.46 6.78Q66.25 6.78 66.12 6.66L66.12 6.66L66.12 6.66Q65.73 6.27 65.04 6L65.04 6L65.04 6Q64.34 5.73 63.72 5.73L63.72 5.73L63.72 5.73Q62.71 5.73 62.12 6.14L62.12 6.14L62.12 6.14Q61.53 6.55 61.53 7.23L61.53 7.23L61.53 7.23Q61.53 7.96 62.12 8.36L62.12 8.36L62.12 8.36Q62.71 8.75 63.88 9.02L63.88 9.02L63.88 9.02Q65.05 9.27 65.79 9.62L65.79 9.62L65.79 9.62Q66.54 9.96 66.94 10.57L66.94 10.57L66.94 10.57Q67.34 11.19 67.34 12.18L67.34 12.18L67.34 12.18Q67.34 13.05 66.86 13.72L66.86 13.72L66.86 13.72Q66.37 14.40 65.53 14.78L65.53 14.78L65.53 14.78Q64.69 15.15 63.69 15.15L63.69 15.15ZM73.43 8.54L72.19 8.54L72.19 13.01L72.19 13.01Q72.19 13.76 72.86 13.76L72.86 13.76L72.86 13.76Q72.97 13.76 73.15 13.70L73.15 13.70L73.15 13.70Q73.33 13.65 73.43 13.65L73.43 13.65L73.43 13.65Q73.63 13.65 73.76 13.81L73.76 13.81L73.76 13.81Q73.90 13.98 73.90 14.23L73.90 14.23L73.90 14.23Q73.90 14.55 73.54 14.78L73.54 14.78L73.54 14.78Q73.18 15 72.73 15L72.73 15L72.73 15Q72.23 15 71.82 14.89L71.82 14.89L71.82 14.89Q71.41 14.79 71.08 14.36L71.08 14.36L71.08 14.36Q70.76 13.94 70.76 13.06L70.76 13.06L70.76 8.54L69.89 8.54L69.89 8.54Q69.61 8.54 69.42 8.35L69.42 8.35L69.42 8.35Q69.23 8.16 69.23 7.88L69.23 7.88L69.23 7.88Q69.23 7.59 69.42 7.41L69.42 7.41L69.42 7.41Q69.61 7.23 69.89 7.23L69.89 7.23L70.76 7.23L70.76 5.97L70.76 5.97Q70.76 5.67 70.96 5.46L70.96 5.46L70.96 5.46Q71.17 5.25 71.48 5.25L71.48 5.25L71.48 5.25Q71.78 5.25 71.98 5.46L71.98 5.46L71.98 5.46Q72.19 5.67 72.19 5.97L72.19 5.97L72.19 7.23L73.43 7.23L73.43 7.23Q73.72 7.23 73.90 7.42L73.90 7.42L73.90 7.42Q74.09 7.61 74.09 7.89L74.09 7.89L74.09 7.89Q74.09 8.18 73.90 8.36L73.90 8.36L73.90 8.36Q73.72 8.54 73.43 8.54L73.43 8.54ZM82.61 7.14L82.61 7.14Q82.92 7.14 83.12 7.35L83.12 7.35L83.12 7.35Q83.33 7.56 83.33 7.86L83.33 7.86L83.33 11.85L83.33 11.85Q83.33 13.41 82.46 14.27L82.46 14.27L82.46 14.27Q81.60 15.13 80.03 15.13L80.03 15.13L80.03 15.13Q78.47 15.13 77.61 14.27L77.61 14.27L77.61 14.27Q76.76 13.41 76.76 11.85L76.76 11.85L76.76 7.86L76.76 7.86Q76.76 7.56 76.96 7.35L76.96 7.35L76.96 7.35Q77.16 7.14 77.46 7.14L77.46 7.14L77.46 7.14Q77.78 7.14 77.98 7.35L77.98 7.35L77.98 7.35Q78.18 7.56 78.18 7.86L78.18 7.86L78.18 11.85L78.18 11.85Q78.18 13.81 80.03 13.81L80.03 13.81L80.03 13.81Q80.94 13.81 81.42 13.32L81.42 13.32L81.42 13.32Q81.90 12.82 81.90 11.85L81.90 11.85L81.90 7.86L81.90 7.86Q81.90 7.56 82.10 7.35L82.10 7.35L82.10 7.35Q82.31 7.14 82.61 7.14L82.61 7.14ZM92.83 3.90L92.83 3.90Q93.15 3.90 93.35 4.10L93.35 4.10L93.35 4.10Q93.55 4.30 93.55 4.62L93.55 4.62L93.55 14.28L93.55 14.28Q93.55 14.58 93.35 14.79L93.35 14.79L93.35 14.79Q93.15 15 92.83 15L92.83 15L92.83 15Q92.52 15 92.32 14.80L92.32 14.80L92.32 14.80Q92.13 14.60 92.13 14.28L92.13 14.28L92.13 13.86L92.13 13.86Q91.75 14.40 91.07 14.78L91.07 14.78L91.07 14.78Q90.39 15.15 89.61 15.15L89.61 15.15L89.61 15.15Q88.59 15.15 87.76 14.63L87.76 14.63L87.76 14.63Q86.94 14.10 86.46 13.16L86.46 13.16L86.46 13.16Q85.98 12.22 85.98 11.05L85.98 11.05L85.98 11.05Q85.98 9.88 86.45 8.95L86.45 8.95L86.45 8.95Q86.92 8.01 87.75 7.49L87.75 7.49L87.75 7.49Q88.57 6.96 89.56 6.96L89.56 6.96L89.56 6.96Q90.36 6.96 91.03 7.29L91.03 7.29L91.03 7.29Q91.71 7.62 92.13 8.14L92.13 8.14L92.13 4.62L92.13 4.62Q92.13 4.30 92.32 4.10L92.32 4.10L92.32 4.10Q92.52 3.90 92.83 3.90L92.83 3.90ZM89.77 13.83L89.77 13.83Q90.48 13.83 91.02 13.47L91.02 13.47L91.02 13.47Q91.57 13.11 91.88 12.48L91.88 12.48L91.88 12.48Q92.19 11.85 92.19 11.05L92.19 11.05L92.19 11.05Q92.19 10.28 91.88 9.64L91.88 9.64L91.88 9.64Q91.57 9 91.02 8.64L91.02 8.64L91.02 8.64Q90.48 8.28 89.77 8.28L89.77 8.28L89.77 8.28Q89.07 8.28 88.52 8.64L88.52 8.64L88.52 8.64Q87.97 9 87.66 9.64L87.66 9.64L87.66 9.64Q87.36 10.28 87.36 11.05L87.36 11.05L87.36 11.05Q87.36 11.85 87.66 12.48L87.66 12.48L87.66 12.48Q87.97 13.11 88.52 13.47L88.52 13.47L88.52 13.47Q89.07 13.83 89.77 13.83L89.77 13.83ZM98.02 14.28L98.02 14.28Q98.02 14.58 97.81 14.79L97.81 14.79L97.81 14.79Q97.61 15 97.30 15L97.30 15L97.30 15Q97.00 15 96.79 14.79L96.79 14.79L96.79 14.79Q96.59 14.58 96.59 14.28L96.59 14.28L96.59 7.79L96.59 7.79Q96.59 7.49 96.79 7.28L96.79 7.28L96.79 7.28Q97.00 7.07 97.30 7.07L97.30 7.07L97.30 7.07Q97.61 7.07 97.81 7.28L97.81 7.28L97.81 7.28Q98.02 7.49 98.02 7.79L98.02 7.79L98.02 14.28ZM97.30 6.08L97.30 6.08Q96.86 6.08 96.67 5.92L96.67 5.92L96.67 5.92Q96.49 5.76 96.49 5.42L96.49 5.42L96.49 5.18L96.49 5.18Q96.49 4.81 96.69 4.67L96.69 4.67L96.69 4.67Q96.89 4.52 97.31 4.52L97.31 4.52L97.31 4.52Q97.73 4.52 97.92 4.67L97.92 4.67L97.92 4.67Q98.11 4.83 98.11 5.18L98.11 5.18L98.11 5.42L98.11 5.42Q98.11 5.78 97.91 5.93L97.91 5.93L97.91 5.93Q97.72 6.08 97.30 6.08L97.30 6.08ZM108.51 11.07L108.51 11.07Q108.51 12.24 107.99 13.17L107.99 13.17L107.99 13.17Q107.46 14.10 106.55 14.63L106.55 14.63L106.55 14.63Q105.65 15.15 104.55 15.15L104.55 15.15L104.55 15.15Q103.46 15.15 102.55 14.63L102.55 14.63L102.55 14.63Q101.64 14.10 101.12 13.17L101.12 13.17L101.12 13.17Q100.59 12.24 100.59 11.07L100.59 11.07L100.59 11.07Q100.59 9.90 101.12 8.96L101.12 8.96L101.12 8.96Q101.64 8.01 102.55 7.49L102.55 7.49L102.55 7.49Q103.46 6.96 104.55 6.96L104.55 6.96L104.55 6.96Q105.65 6.96 106.55 7.49L106.55 7.49L106.55 7.49Q107.46 8.01 107.99 8.96L107.99 8.96L107.99 8.96Q108.51 9.90 108.51 11.07L108.51 11.07ZM107.09 11.07L107.09 11.07Q107.09 10.26 106.75 9.62L106.75 9.62L106.75 9.62Q106.41 8.98 105.83 8.63L105.83 8.63L105.83 8.63Q105.26 8.28 104.55 8.28L104.55 8.28L104.55 8.28Q103.85 8.28 103.27 8.63L103.27 8.63L103.27 8.63Q102.69 8.98 102.35 9.62L102.35 9.62L102.35 9.62Q102.02 10.26 102.02 11.07L102.02 11.07L102.02 11.07Q102.02 11.87 102.35 12.50L102.35 12.50L102.35 12.50Q102.69 13.13 103.27 13.48L103.27 13.48L103.27 13.48Q103.85 13.83 104.55 13.83L104.55 13.83L104.55 13.83Q105.26 13.83 105.83 13.48L105.83 13.48L105.83 13.48Q106.41 13.13 106.75 12.50L106.75 12.50L106.75 12.50Q107.09 11.87 107.09 11.07L107.09 11.07Z" transform="rotate(0 54.87500214576721 10.950000286102295)"></path><defs id="SvgjsDefs1734"></defs></svg></g></svg>